<svg id="Capa_1" fill="#fff" enable-background="new 0 0 512 512" height="512" viewBox="0 0 512 512" width="512" xmlns="http://www.w3.org/2000/svg"><g><path d="m158.5 270.781h15v15.054h-15z"/><path d="m332.948 49.947c-2.117 5.022-3.597 15.345-11.023 14.83-11.29-.896-7.681-11.985-5.117-19.045l-20.677-9.712-24.829-36.02h-25.323l-9.026 10.216-11.059-9.578-37.33 37.306v40.027l-15.064 29.981v73.624l-15 14.99v59.161h15v-52.952l15-14.99v-76.281l15.063-29.981v-37.37l23.061-23.045 11.734 10.164 14.386-16.281h10.677l22.66 32.872 12.939 6.078c-3.491 26.448 35.127 36.031 44.453 10.997h10.027v17.672l-26.967 13.475-25.224 25.559v21.569h15v-15.421l19.157-19.412 33.034-16.506v-41.927z"/><path d="m316.31 158.204h-15v14.316l15.085 17.117v22.302l-42.359 11.27c-5.567 12.188-15.806 10.594-25.031 3.496l-12.421 19.548c-3.036 4.777-4.02 10.448-2.771 15.967 1.371 6.639 6.119 11.691 11.963 14.841l-16.514 27.403h-12.209l-15.617 32.755 24.564 16.367v14.469l-39.36 31.335 9.265 19.157v2.171h-25.643l-11.762-19.73v-20.509l15-59.962v-19.882h-15v18.037l-15 59.962v26.482l18.238 30.592h49.166v-20.593l-5.544-11.462 35.64-28.374v-29.715l-20.436-13.615 5.957-12.493h11.217l28.486-47.273-15.066-9.441c-2.832-1.694-3.74-5.706-1.913-8.453l6.755-9.953c10.589 3.149 21.356.867 27.709-8.189l47.686-12.687v-39.485l-15.085-17.117z"/><path d="m188.5 450.316v33.783l34.867 27.901h32.856v-35.002l-31.901-26.682zm52.724 46.694h-12.591l-25.133-20.112v-11.592h15.373l22.351 18.693z"/><path d="m218.5 45.775h15v14.99h-15z"/><path d="m218.5 75.756h15v14.99h-15z"/></g></svg>