<svg id="Capa_1" fill="#fff" enable-background="new 0 0 512 512" height="512" viewBox="0 0 512 512" width="512" xmlns="http://www.w3.org/2000/svg"><g><path d="m497 242.001v-182.001h15v-45h-437v15h422v15h-482v-15h45v-15h-60v45h15v272h31.001v40.606l16.864 16.864-46.863 20.085v72.445h-16.002v15h512v-15h-16.001v-72.444l-46.863-20.085 16.864-16.864v-40.607h31v-74.999h-15v59.999h-16.001v-7.5c0-12.406-10.093-22.5-22.5-22.5h-45.001c-12.406 0-22.5 10.094-22.5 22.5v7.5h-74.998v-7.5c0-12.406-10.094-22.5-22.5-22.5h-45c-12.407 0-22.5 10.094-22.5 22.5v7.5h-74.999v-7.5c0-12.406-10.094-22.5-22.5-22.5h-45c-12.406 0-22.5 10.094-22.5 22.5v7.5h-16.001v-257h452v182.001zm-465.999 177.445 46.54-19.946h26.92l46.539 19.946v62.554h-119.999zm211.539-19.946h26.92l46.54 19.946v62.554h-120v-62.554zm238.458 82.5h-119.999v-62.554l46.54-19.946h26.92l46.539 19.946zm-89.999-172.5c0-4.136 3.364-7.5 7.5-7.5h45.001c4.135 0 7.5 3.364 7.5 7.5v56.894l-18.108 18.106h-23.787l-18.106-18.106zm-15 22.5v40.606l16.864 16.864-46.863 20.085v72.445h-15v-72.444l-46.864-20.085 16.864-16.865v-40.606zm-149.999-22.5c0-4.136 3.364-7.5 7.5-7.5h45c4.136 0 7.5 3.364 7.5 7.5v56.894l-18.107 18.106h-23.787l-18.106-18.106zm-15 22.5v40.606l16.864 16.864-46.864 20.086v72.444h-15v-72.444l-46.864-20.085 16.864-16.864v-40.607zm-149.999-22.5c0-4.136 3.364-7.5 7.5-7.5h45c4.136 0 7.5 3.364 7.5 7.5v56.894l-18.107 18.106h-23.787l-18.106-18.106z"/><path d="m85.002 212.25c0 16.543 13.458 30.001 30 30.001 8.642 0 16.438-3.678 21.917-9.546l42.121 7.901c2.767 15.134 16.041 26.645 31.962 26.645 17.921 0 32.5-14.58 32.5-32.501 0-16.409-12.225-30.007-28.045-32.187l-29.65-49.963c2.963-4.387 4.694-9.671 4.694-15.351 0-15.163-12.337-27.5-27.5-27.5s-27.5 12.337-27.5 27.5c0 4.642 1.161 9.016 3.2 12.855l-25.403 32.197c-15.752.887-28.296 13.979-28.296 29.949zm30 15.001c-8.271 0-15-6.729-15-15.001s6.729-15 15-15 15 6.729 15 15-6.729 15.001-15 15.001zm64.849-1.754-35.583-6.674c.475-2.117.734-4.315.734-6.573 0-11.29-6.271-21.139-15.51-26.258l19.705-24.975c4.06 2.368 8.775 3.731 13.805 3.731 3.974 0 7.749-.854 11.163-2.377l24.996 42.121c-9.254 3.635-16.449 11.393-19.31 21.005zm48.652 9.253c0 9.65-7.851 17.501-17.5 17.501s-17.5-7.851-17.5-17.501c0-9.649 7.851-17.5 17.5-17.5s17.5 7.851 17.5 17.5zm-65.501-110.001c6.893 0 12.5 5.607 12.5 12.5s-5.607 12.5-12.5 12.5-12.5-5.607-12.5-12.5 5.607-12.5 12.5-12.5z"/><path d="m276.999 136.001h97.499v15h-97.499z"/><path d="m306.999 196h97.5v15h-97.5z"/><path d="m359.498 166h45v15h-45z"/><path d="m276.999 196h15v15h-15z"/><path d="m276.999 166h67.5v15h-67.5z"/><path d="m389.498 136.001h15v15h-15z"/><path d="m452 104.999h15v45h-15z"/><path d="m452 74.999h15v15h-15z"/></g></svg>