<?xml version="1.0" standalone="no"?>
<!DOCTYPE svg PUBLIC "-//W3C//DTD SVG 20010904//EN"
 "http://www.w3.org/TR/2001/REC-SVG-20010904/DTD/svg10.dtd">
<svg version="1.0" xmlns="http://www.w3.org/2000/svg"
 width="4150.000000pt" height="4190.000000pt" viewBox="0 0 4150.000000 4190.000000"
 preserveAspectRatio="xMidYMid meet">

<g transform="translate(0.000000,4190.000000) scale(0.100000,-0.100000)"
fill="#000000" stroke="none">
<path d="M20335 41884 c-522 -22 -893 -53 -1320 -110 -2645 -350 -5110 -1510
-7090 -3336 -728 -672 -1409 -1464 -1961 -2283 -1709 -2534 -2463 -5547 -2154
-8605 191 -1885 798 -3714 1775 -5345 870 -1452 2028 -2733 3390 -3750 1924
-1437 4200 -2310 6585 -2524 456 -41 584 -46 1190 -46 606 0 734 5 1190 46
3392 305 6521 1935 8743 4554 882 1039 1622 2263 2126 3513 837 2078 1124
4289 845 6527 -230 1853 -871 3653 -1867 5245 -1088 1738 -2593 3217 -4342
4267 -1799 1080 -3765 1690 -5895 1828 -218 14 -1030 27 -1215 19z m740 -2605
c315 -26 651 -105 970 -230 134 -52 417 -194 542 -272 944 -588 1553 -1571
1653 -2667 13 -148 13 -493 0 -635 -26 -276 -80 -535 -165 -792 -394 -1187
-1403 -2080 -2628 -2327 -252 -51 -370 -61 -697 -61 -327 0 -445 10 -697 61
-1309 264 -2367 1268 -2696 2559 -73 285 -97 463 -104 782 -6 282 4 455 43
681 181 1079 861 2012 1838 2523 597 311 1234 435 1941 378z m-6095 -1870
c-122 -495 -179 -934 -187 -1456 -7 -437 11 -701 73 -1073 177 -1066 654
-2063 1393 -2915 137 -158 419 -438 553 -549 59 -49 105 -93 102 -98 -3 -4
-24 -18 -47 -29 -23 -12 -134 -77 -247 -145 -2400 -1439 -3781 -3619 -4025
-6354 -8 -91 -20 -303 -27 -473 -26 -650 35 -1438 153 -1985 11 -52 18 -96 16
-98 -3 -3 -54 55 -114 128 -1209 1471 -2003 3399 -2222 5398 -77 696 -85 1420
-25 2080 170 1887 870 3714 2017 5270 303 411 603 757 996 1151 389 388 698
656 1105 959 151 113 517 362 523 356 2 -2 -15 -77 -37 -167z m11700 40 c316
-212 646 -466 965 -744 217 -190 717 -690 910 -910 1350 -1545 2219 -3428
2509 -5435 119 -817 131 -1739 35 -2600 -206 -1859 -904 -3657 -1970 -5076
-154 -206 -359 -458 -366 -450 -2 2 5 46 16 98 118 547 179 1335 153 1985 -7
170 -19 382 -27 473 -244 2735 -1625 4915 -4025 6354 -113 68 -224 133 -247
145 -23 11 -44 25 -47 29 -3 5 43 49 102 98 134 111 416 391 553 549 739 852
1216 1849 1393 2915 62 372 80 636 73 1073 -8 522 -65 961 -187 1455 -22 90
-40 165 -40 168 0 7 3 5 200 -127z m-5602 -7534 c750 -32 1567 -249 2282 -606
933 -467 1699 -1144 2275 -2014 1149 -1733 1288 -3949 367 -5815 l-77 -154 -7
49 c-3 28 -11 111 -18 185 -52 627 -244 1293 -540 1876 -527 1033 -1402 1878
-2450 2364 -539 249 -1080 395 -1720 462 -196 20 -794 17 -1000 -5 -653 -72
-1235 -241 -1800 -523 -1346 -673 -2343 -1905 -2714 -3356 -70 -273 -126 -599
-143 -831 -3 -48 -9 -90 -13 -92 -4 -2 -34 53 -68 123 -547 1151 -698 2468
-427 3727 198 920 628 1797 1238 2525 518 618 1147 1114 1877 1479 746 372
1547 578 2375 611 184 7 297 6 563 -5z m27 -6269 c576 -85 1074 -335 1480
-741 196 -196 337 -385 459 -615 303 -573 382 -1223 226 -1851 -114 -456 -348
-869 -684 -1205 -398 -397 -895 -648 -1461 -736 -200 -31 -550 -31 -750 0
-804 125 -1483 590 -1883 1289 -440 770 -454 1713 -36 2503 208 392 539 747
918 984 316 198 699 334 1056 375 52 6 111 13 130 15 73 9 449 -4 545 -18z"/>
<path d="M4770 14634 c-185 -49 -342 -179 -421 -349 -67 -142 -63 -61 -66
-1257 l-4 -1086 -112 64 c-564 322 -1242 437 -1883 319 -436 -81 -855 -270
-1213 -548 -125 -97 -349 -317 -445 -437 -313 -392 -509 -837 -592 -1347 -21
-132 -30 -546 -15 -684 64 -565 270 -1061 618 -1484 103 -126 301 -321 418
-415 213 -169 535 -350 785 -440 832 -301 1761 -188 2495 305 684 460 1125
1181 1219 1995 14 119 16 417 16 2480 0 2600 5 2400 -67 2550 -28 58 -55 95
-122 161 -95 95 -182 145 -301 173 -81 20 -238 19 -310 0z m-1660 -3587 c300
-71 514 -190 731 -407 221 -221 348 -453 415 -760 27 -121 27 -458 1 -580 -91
-427 -346 -783 -718 -1005 -252 -149 -590 -225 -878 -196 -366 37 -670 180
-926 436 -506 506 -584 1281 -188 1879 89 135 283 329 413 415 196 129 404
207 655 245 17 2 111 3 210 1 149 -3 198 -8 285 -28z"/>
<path d="M9764 14630 c-136 -35 -260 -118 -344 -228 -76 -100 -1160 -2268
-1185 -2372 -102 -407 200 -800 615 -802 108 -1 186 15 278 57 93 43 181 113
239 189 70 94 1159 2277 1184 2374 23 91 25 222 3 312 -27 116 -78 205 -173
301 -95 95 -182 145 -301 173 -88 21 -228 19 -316 -4z"/>
<path d="M40517 14629 c-271 -66 -489 -279 -569 -555 -30 -102 -32 -303 -4
-403 75 -274 283 -486 551 -563 67 -19 103 -23 220 -23 132 1 146 3 238 34
239 82 416 259 500 499 27 76 31 104 35 218 4 110 1 144 -17 215 -75 297 -306
522 -599 584 -95 21 -260 18 -355 -6z"/>
<path d="M6622 12350 c-233 -61 -415 -251 -468 -486 -22 -99 -15 -242 15 -332
12 -35 474 -968 1026 -2073 l1005 -2009 -509 -1018 c-297 -595 -519 -1050
-532 -1093 -27 -87 -32 -240 -10 -329 55 -228 243 -418 471 -477 41 -10 102
-16 165 -16 183 2 331 68 462 207 l74 79 1675 3351 c1168 2338 1680 3371 1691
3416 22 85 21 235 -1 319 -91 341 -441 548 -780 461 -117 -30 -209 -82 -297
-170 l-76 -75 -804 -1602 c-442 -882 -806 -1603 -809 -1603 -3 0 -363 716
-800 1590 -537 1074 -809 1608 -838 1645 -81 102 -220 188 -355 220 -86 20
-216 18 -305 -5z"/>
<path d="M14245 12364 c-335 -35 -614 -113 -900 -253 -261 -128 -476 -281
-681 -486 -382 -380 -624 -851 -715 -1389 -31 -185 -40 -624 -37 -1841 4
-1196 -2 -1098 76 -1250 45 -88 171 -217 257 -262 100 -52 197 -77 305 -77
117 0 180 14 290 66 120 57 233 170 290 289 73 153 70 79 70 1489 0 1074 2
1280 15 1365 80 529 472 939 1005 1051 115 25 351 25 473 1 248 -50 467 -167
647 -347 191 -191 310 -417 355 -677 13 -73 15 -277 15 -1362 1 -1059 3 -1290
15 -1356 42 -236 233 -437 475 -501 85 -23 234 -23 320 0 206 55 367 204 449
414 l26 67 5 1300 c3 715 2 1354 -2 1420 -42 608 -324 1203 -777 1638 -383
366 -860 600 -1391 682 -101 16 -494 28 -585 19z"/>
<path d="M20235 12364 c-16 -2 -73 -9 -125 -15 -586 -67 -1155 -341 -1594
-769 -243 -237 -405 -460 -556 -765 -264 -533 -348 -1111 -248 -1699 171
-1014 901 -1856 1883 -2176 657 -214 1378 -173 2012 113 105 48 255 128 324
174 22 14 41 24 43 22 2 -2 19 -37 39 -77 66 -136 168 -238 302 -302 104 -50
169 -64 285 -64 172 1 321 63 446 188 80 80 132 166 166 276 l23 75 0 1225 c0
1309 0 1303 -51 1560 -71 357 -210 692 -413 995 -123 185 -231 314 -394 471
-209 202 -416 348 -688 483 -312 156 -626 246 -978 281 -95 9 -406 12 -476 4z
m520 -1312 c596 -129 1048 -588 1167 -1184 31 -158 31 -417 0 -564 -67 -311
-195 -548 -416 -770 -175 -174 -342 -281 -564 -358 -572 -199 -1203 -32 -1608
426 -170 191 -290 431 -346 691 -32 150 -32 437 1 587 45 210 128 402 243 565
81 115 248 282 363 364 177 125 414 221 630 256 126 20 408 13 530 -13z"/>
<path d="M26430 12364 c-162 -19 -217 -28 -301 -44 -463 -94 -902 -325 -1250
-657 -370 -356 -635 -831 -733 -1318 -51 -256 -49 -196 -53 -1626 -4 -1483 -7
-1413 62 -1553 83 -168 236 -294 416 -342 85 -22 234 -23 319 -1 115 30 207
83 295 172 86 86 127 153 166 270 l24 70 6 1345 c6 1471 2 1370 64 1556 130
387 466 701 865 809 609 163 1247 -154 1489 -742 16 -40 42 -119 58 -175 l28
-103 5 -1345 c6 -1498 0 -1376 77 -1530 46 -93 168 -220 258 -267 138 -72 317
-97 455 -64 219 54 394 213 472 431 l23 65 5 1345 c6 1239 8 1351 24 1420 58
248 161 442 326 614 113 118 218 195 365 267 301 147 642 167 953 57 429 -151
737 -509 829 -963 14 -70 17 -240 22 -1415 6 -1267 7 -1338 25 -1385 93 -251
278 -407 529 -445 202 -30 428 53 567 208 58 64 133 209 148 287 7 32 11 533
12 1405 2 1310 1 1359 -18 1485 -87 565 -346 1066 -754 1461 -385 372 -864
608 -1403 690 -167 26 -560 26 -725 1 -518 -80 -956 -286 -1341 -630 -52 -46
-117 -108 -145 -138 l-51 -55 -127 123 c-396 382 -868 616 -1406 698 -100 16
-500 28 -580 19z"/>
<path d="M36200 12364 c-554 -50 -1085 -263 -1520 -610 -117 -94 -331 -309
-426 -429 -793 -1003 -813 -2395 -50 -3409 753 -1000 2081 -1377 3241 -919
153 61 271 117 392 189 43 25 86 50 95 55 15 8 22 1 42 -45 93 -210 278 -351
509 -386 265 -40 543 109 662 355 69 143 66 69 62 1458 -3 1367 -1 1296 -63
1575 -226 1016 -1015 1827 -2030 2087 -219 56 -378 76 -639 80 -126 1 -250 1
-275 -1z m532 -1313 c529 -114 962 -506 1121 -1017 53 -167 62 -235 62 -449 0
-173 -3 -214 -23 -305 -177 -794 -928 -1301 -1722 -1164 -553 96 -1019 513
-1175 1052 -42 144 -58 256 -58 417 0 181 19 304 73 466 178 539 628 921 1195
1015 118 20 402 11 527 -15z"/>
<path d="M40565 12355 c-247 -53 -447 -265 -491 -517 -12 -71 -14 -412 -12
-2293 l3 -2210 23 -70 c74 -222 246 -386 462 -442 85 -22 234 -21 319 1 185
50 345 183 423 354 61 135 58 -22 58 2408 0 2178 0 2222 -20 2298 -58 229
-237 408 -466 466 -89 23 -209 25 -299 5z"/>
<path d="M20860 4045 c0 -677 -3 -1025 -10 -1025 -5 0 -10 4 -10 9 0 5 -37 49
-82 96 -143 151 -311 244 -518 287 -129 27 -384 21 -505 -12 -190 -51 -305
-119 -450 -264 -146 -147 -230 -306 -276 -526 -27 -126 -32 -378 -10 -500 92
-518 459 -860 961 -896 225 -16 477 54 654 180 67 47 182 165 212 215 10 17
22 31 26 31 4 0 8 -85 8 -190 l0 -190 100 0 100 0 0 1905 0 1905 -100 0 -100
0 0 -1025z m-632 -826 c387 -88 642 -431 642 -863 0 -383 -174 -715 -450 -860
-36 -19 -106 -47 -155 -62 -79 -24 -107 -27 -230 -27 -159 0 -245 18 -356 74
-183 92 -301 215 -394 410 -135 287 -130 616 12 893 187 360 538 525 931 435z"/>
<path d="M13335 4276 c-51 -22 -103 -88 -111 -141 -13 -88 38 -181 113 -206
57 -18 145 -7 186 24 87 66 95 210 15 284 -52 49 -141 66 -203 39z"/>
<path d="M26330 4274 c-74 -32 -113 -90 -113 -169 0 -106 63 -176 163 -183 74
-5 121 10 159 53 65 75 66 177 3 247 -60 67 -136 85 -212 52z"/>
<path d="M31920 3770 l0 -380 -120 0 -120 0 0 -95 0 -95 120 0 120 0 0 -970 0
-970 100 0 100 0 2 968 3 967 188 3 187 2 0 95 0 95 -190 0 -190 0 0 380 0
380 -100 0 -100 0 0 -380z"/>
<path d="M5640 3424 c-232 -44 -420 -134 -577 -278 -137 -125 -256 -326 -310
-521 -25 -93 -27 -113 -27 -300 0 -187 2 -206 28 -300 56 -204 159 -378 307
-519 144 -138 304 -223 501 -268 113 -25 332 -30 448 -9 174 31 349 107 492
213 l78 58 0 137 0 136 -77 -75 c-341 -329 -825 -389 -1180 -147 -70 48 -169
145 -219 215 -226 315 -242 729 -42 1055 68 110 198 239 303 301 353 208 804
147 1119 -153 l76 -72 0 137 0 136 -57 45 c-81 65 -259 150 -378 181 -87 24
-123 27 -280 30 -99 1 -191 0 -205 -2z"/>
<path d="M7740 3416 c-115 -33 -227 -128 -290 -246 l-35 -65 -3 143 -3 142
-99 0 -100 0 0 -1065 0 -1065 99 0 100 0 4 748 c3 719 4 750 25 841 25 110 76
223 126 278 95 106 289 148 404 89 l28 -14 56 92 55 93 -46 18 c-60 23 -256
30 -321 11z"/>
<path d="M9150 3423 c-216 -36 -399 -132 -551 -290 -212 -221 -310 -476 -310
-808 0 -80 7 -176 15 -225 44 -246 161 -470 327 -625 122 -113 258 -187 428
-232 83 -22 117 -26 256 -26 232 -1 377 36 560 142 128 74 350 309 390 413 5
11 -15 28 -74 62 -44 25 -84 46 -88 46 -4 -1 -26 -31 -48 -67 -58 -97 -203
-240 -300 -296 -248 -145 -543 -153 -810 -22 -163 80 -280 197 -360 360 -57
115 -85 223 -92 353 l-6 102 927 0 926 0 0 54 c0 189 -67 427 -168 601 -56 96
-228 273 -314 323 -174 103 -329 142 -543 141 -77 -1 -151 -4 -165 -6z m349
-199 c238 -53 441 -220 556 -459 38 -79 53 -124 79 -237 l6 -28 -826 0 -826 0
7 48 c10 75 59 205 105 283 51 85 153 196 235 254 200 142 431 190 664 139z"/>
<path d="M11652 3410 c-403 -87 -713 -385 -819 -787 -31 -120 -43 -358 -23
-481 42 -261 151 -468 342 -647 138 -130 308 -218 503 -261 110 -24 350 -24
460 0 174 38 333 109 463 205 l82 61 0 136 0 137 -78 -75 c-402 -384 -966
-395 -1319 -26 -239 250 -323 616 -217 943 134 412 517 667 937 624 224 -23
412 -110 579 -267 l68 -64 0 136 0 136 -62 46 c-90 66 -247 140 -363 170 -87
23 -124 27 -280 30 -151 3 -195 0 -273 -16z"/>
<path d="M14960 3411 c-265 -58 -490 -221 -639 -463 -233 -381 -220 -931 31
-1301 53 -78 156 -187 232 -244 284 -214 728 -252 1071 -89 52 24 115 59 142
77 114 79 268 251 326 366 l17 31 -80 46 c-43 25 -83 46 -87 46 -4 0 -28 -32
-53 -72 -171 -270 -465 -425 -766 -404 -448 31 -768 355 -791 799 l-6 107 928
0 928 0 -7 95 c-35 504 -313 877 -741 996 -115 31 -383 37 -505 10z m429 -192
c198 -50 387 -195 500 -384 41 -68 96 -210 109 -282 l9 -53 -825 0 -825 0 7
49 c3 27 17 80 30 117 44 132 96 215 195 317 213 221 511 309 800 236z"/>
<path d="M17474 3410 c-173 -45 -333 -165 -418 -312 -11 -21 -24 -38 -28 -38
-5 0 -8 74 -8 165 l0 165 -100 0 -100 0 0 -1065 0 -1065 99 0 100 0 4 658 c3
561 6 669 21 742 64 329 201 505 439 567 82 21 252 21 334 0 112 -29 198 -88
249 -169 36 -57 71 -172 83 -273 7 -57 11 -356 11 -807 l0 -718 100 0 100 0 0
736 c0 797 -3 859 -55 1023 -67 210 -222 353 -433 396 -105 21 -307 19 -398
-5z"/>
<path d="M22560 3411 c-170 -38 -301 -98 -433 -197 -531 -398 -597 -1172 -142
-1653 342 -362 872 -452 1326 -225 170 85 309 209 419 376 265 400 231 973
-81 1333 -155 179 -339 293 -579 357 -112 30 -393 35 -510 9z m355 -177 c239
-25 498 -186 638 -397 174 -262 200 -619 67 -903 -139 -298 -404 -487 -741
-526 -297 -35 -595 89 -785 327 -305 380 -269 928 82 1266 144 138 312 217
509 239 68 7 115 6 230 -6z"/>
<path d="M30234 3410 c-92 -24 -183 -70 -261 -132 -59 -46 -143 -146 -166
-195 -6 -13 -14 -23 -19 -23 -4 0 -8 74 -8 165 l0 165 -100 0 -100 0 0 -1065
0 -1065 99 0 100 0 4 663 c4 622 5 668 24 757 43 198 99 317 193 411 105 105
228 150 410 150 231 0 364 -71 441 -235 63 -135 62 -125 66 -973 l4 -773 100
0 99 0 0 728 c0 438 -4 761 -10 812 -35 288 -141 470 -324 560 -44 22 -114 47
-154 55 -105 21 -307 19 -398 -5z"/>
<path d="M33636 3414 c-409 -81 -744 -395 -852 -798 -156 -589 181 -1193 762
-1361 241 -70 524 -52 762 49 161 68 335 203 443 345 71 94 154 267 185 386
34 133 43 338 20 475 -76 465 -420 816 -887 905 -101 19 -336 19 -433 -1z
m399 -190 c406 -78 699 -415 731 -844 17 -230 -68 -485 -222 -665 -108 -127
-302 -243 -479 -287 -126 -31 -325 -30 -440 1 -309 83 -543 316 -642 638 -24
79 -27 104 -27 248 -1 127 3 174 18 230 85 317 305 559 592 654 154 51 291 58
469 25z"/>
<path d="M35956 3414 c-142 -34 -294 -151 -355 -271 -102 -203 -74 -426 73
-575 96 -98 201 -154 469 -254 83 -31 182 -72 219 -91 132 -69 205 -171 215
-305 23 -308 -247 -556 -558 -510 -193 28 -342 151 -425 349 -15 38 -29 70
-31 72 -1 2 -45 -9 -98 -25 -112 -33 -111 -32 -61 -146 91 -210 265 -361 483
-420 103 -28 298 -30 393 -5 243 64 431 249 484 477 20 83 20 246 1 328 -28
118 -91 213 -195 294 -81 62 -178 109 -390 188 -304 114 -389 178 -426 320
-28 110 6 212 101 299 181 167 469 126 602 -85 16 -24 32 -44 36 -44 13 0 167
84 167 91 0 4 -19 35 -41 69 -73 109 -219 210 -356 245 -71 19 -228 18 -307
-1z"/>
<path d="M13300 2325 l0 -1065 105 0 105 0 0 1065 0 1065 -105 0 -105 0 0
-1065z"/>
<path d="M26300 1700 l0 -1690 100 0 100 0 0 1690 0 1690 -100 0 -100 0 0
-1690z"/>
<path d="M27290 2638 c0 -799 3 -865 48 -991 42 -116 111 -207 217 -282 386
-276 1000 -162 1185 219 74 153 73 136 77 1019 l4 787 -105 0 -105 0 -4 -757
c-3 -742 -3 -760 -25 -840 -55 -208 -151 -313 -337 -369 -75 -23 -283 -26
-365 -5 -186 46 -301 163 -350 356 -34 132 -40 281 -40 958 l0 657 -100 0
-100 0 0 -752z"/>
</g>
</svg>
