<svg id="Capa_1" fill="#fffd" enable-background="new 0 0 512.024 512.024" height="512" viewBox="0 0 512.024 512.024" width="512" xmlns="http://www.w3.org/2000/svg"><g><path d="m335.713 417.261c-4.143 0-7.5 3.358-7.5 7.5v22.341c0 14.738-5.26 29.036-14.812 40.261-1.154 1.356-1.788 3.079-1.788 4.86v12.172c0 4.142 3.357 7.5 7.5 7.5s7.5-3.358 7.5-7.5v-9.493c10.725-13.582 16.6-30.445 16.6-47.8v-22.341c0-4.142-3.358-7.5-7.5-7.5z"/><path d="m319.113 279.434c-3.414 0-6.662.718-9.608 2.004-2.281-10.933-11.992-19.171-23.592-19.171-3.282 0-6.412.662-9.267 1.855-1.39-11.976-11.59-21.305-23.932-21.305-8.864 0-16.62 4.813-20.806 11.96-3.624-2.182-7.864-3.44-12.394-3.44-13.289 0-24.1 10.811-24.1 24.1v78.71c-.516-.767-1.028-1.529-1.533-2.28-7.43-11.048-22.128-14.227-33.46-7.234-9.621 5.936-13.968 17.612-10.57 28.394l13.346 42.35 3.629 22.322c3.496 21.501 15.734 40.813 33.647 53.162v13.533c0 4.142 3.358 7.5 7.5 7.5s7.5-3.358 7.5-7.5v-14.678c0-4.297-2.133-8.288-5.708-10.676-14.988-10.012-25.242-25.958-28.134-43.749l-3.716-22.856c-.058-.355-.141-.707-.25-1.051l-13.508-42.867c-1.331-4.222.371-8.795 4.139-11.119 4.451-2.744 10.221-1.498 13.137 2.838 6.941 10.323 15.251 22.71 15.251 22.711 1.839 2.742 5.256 3.955 8.412 2.997 3.158-.961 5.316-3.875 5.316-7.175v-103.332c0-5.018 4.082-9.1 9.1-9.1s9.1 4.082 9.1 9.1v103.333c0 4.142 3.358 7.5 7.5 7.5s7.5-3.358 7.5-7.5v-111.853c0-5.018 4.082-9.1 9.1-9.1s9.1 4.082 9.1 9.1v111.854c0 4.142 3.357 7.5 7.5 7.5s7.5-3.358 7.5-7.5v-92.404c0-5.018 4.082-9.1 9.1-9.1 5.019 0 9.101 4.083 9.101 9.1v92.404c0 4.142 3.357 7.5 7.5 7.5s7.5-3.358 7.5-7.5v-75.256c.011-5.009 4.088-9.08 9.1-9.08 5.018 0 9.1 4.082 9.1 9.1v88.909c0 4.142 3.357 7.5 7.5 7.5s7.5-3.358 7.5-7.5v-88.909c0-13.29-10.812-24.101-24.1-24.101z"/><path d="m170.416 246.999c3.864 2.597 8.4 4.019 13.163 4.066.083.001.166.001.249.001 6.344 0 12.325-2.441 16.862-6.888 2.346-2.3 4.117-4.967 5.32-7.82 4.396 3.556 9.761 5.35 15.138 5.35 6.089 0 12.185-2.288 16.867-6.877 6.327-6.201 8.479-15.058 6.472-23.089 4.217-.998 8.099-3.123 11.274-6.235 4.598-4.506 7.165-10.532 7.23-16.969.064-6.438-2.381-12.514-6.887-17.111l-55.094-56.214c.905.187 1.804.373 2.69.555 13.036 2.691 25.759-5.327 28.96-18.254 2.716-10.974-2.352-22.355-12.326-27.677l-39.174-20.903-18.216-13.402c-17.546-12.909-39.804-18.132-61.242-14.416l-18.363-18.736c-2.899-2.959-7.648-3.005-10.606-.107-2.958 2.899-3.006 7.648-.107 10.606l21.162 21.592c1.753 1.789 4.283 2.587 6.746 2.121l2.806-.529c17.713-3.341 36.197.87 50.715 11.551l18.652 13.723c.291.214.596.406.914.576l39.653 21.159c3.906 2.084 5.891 6.542 4.827 10.839-1.256 5.075-6.25 8.221-11.369 7.168-12.183-2.513-26.788-5.543-26.789-5.544-3.23-.67-6.522.851-8.105 3.748s-1.085 6.488 1.226 8.845l72.33 73.799c1.701 1.736 2.625 4.03 2.6 6.46-.024 2.43-.994 4.706-2.73 6.408-1.736 1.701-4.01 2.667-6.46 2.6-2.43-.024-4.706-.993-6.406-2.729l-72.33-73.8c-2.899-2.959-7.648-3.006-10.606-.107s-3.006 7.648-.107 10.606l78.293 79.884c3.512 3.584 3.454 9.357-.129 12.869-3.584 3.512-9.357 3.454-12.869-.129l-78.293-79.884c-2.899-2.958-7.648-3.007-10.606-.107-2.958 2.899-3.006 7.648-.107 10.606l64.681 65.996c3.51 3.584 3.451 9.355-.131 12.866-1.736 1.701-4.031 2.633-6.461 2.601-2.431-.024-4.706-.994-6.407-2.729l-64.679-65.994c-2.899-2.959-7.648-3.006-10.606-.107s-3.006 7.648-.107 10.606l52.663 53.733c3.512 3.583 3.454 9.356-.129 12.869-3.583 3.511-9.356 3.453-12.869-.129l-62.299-63.565c-2.899-2.959-7.648-3.006-10.606-.107s-3.006 7.648-.107 10.606l62.3 63.566c4.712 4.808 10.96 7.219 17.214 7.219 6.089 0 12.185-2.288 16.867-6.877 2.434-2.391 4.245-5.179 5.448-8.159z"/><path d="m41.104 141.78c-10.316-10.525-16.568-24.419-17.603-39.121-.125-1.776-.878-3.451-2.125-4.723l-8.52-8.692c-2.899-2.958-7.647-3.006-10.606-.106-2.958 2.899-3.006 7.648-.106 10.606l6.644 6.778c1.847 17.207 9.455 33.363 21.604 45.757l15.475 15.79c1.469 1.499 3.412 2.25 5.357 2.25 1.894 0 3.79-.713 5.249-2.144 2.958-2.899 3.006-7.647.107-10.606z"/><path d="m509.88 81.753c-2.9-2.959-7.647-3.005-10.606-.107l-10.483 10.274c-3.069 3.009-4.426 7.327-3.629 11.549 3.34 17.712-.871 36.197-11.552 50.715l-13.723 18.652c-.214.291-.406.596-.576.914l-21.157 39.652c-2.086 3.907-6.547 5.892-10.84 4.828-5.075-1.256-8.225-6.25-7.168-11.369 2.514-12.183 5.544-26.788 5.544-26.789.671-3.232-.851-6.522-3.748-8.105-2.895-1.582-6.488-1.085-8.846 1.226l-34.652 33.962c-2.958 2.899-3.006 7.648-.106 10.606 2.9 2.959 7.647 3.006 10.606.107l17.066-16.727c-.188.905-.372 1.803-.556 2.689-2.689 13.04 5.329 25.761 18.255 28.96 1.981.49 3.975.727 5.943.727 8.94 0 17.372-4.88 21.734-13.053l20.903-39.175 13.401-18.215c12.909-17.545 18.134-39.803 14.417-61.243l9.665-9.472c2.96-2.899 3.008-7.648.108-10.606z"/><path d="m355.544 229.598-16.246 15.923c-1.735 1.702-4.009 2.6-6.461 2.6-2.431-.024-4.706-.994-6.407-2.73-3.51-3.582-3.454-9.351.125-12.864l73.803-72.334c2.958-2.899 3.006-7.648.106-10.606-2.899-2.959-7.648-3.006-10.606-.107l-73.799 72.329c-.002.002-.003.003-.005.005l-6.08 5.959c-3.582 3.512-9.354 3.455-12.868-.129-1.701-1.736-2.625-4.031-2.601-6.461s.994-4.706 2.73-6.407l79.884-78.293c2.958-2.899 3.006-7.648.106-10.606-2.9-2.959-7.648-3.006-10.606-.107l-65.993 64.679c-3.581 3.512-9.354 3.455-12.868-.129-1.701-1.736-2.625-4.031-2.601-6.461s.994-4.706 2.73-6.407l65.993-64.679c2.958-2.899 3.006-7.648.106-10.606-2.899-2.959-7.647-3.006-10.606-.107l-53.742 52.672c-3.584 3.502-9.349 3.442-12.859-.138-3.512-3.584-3.454-9.357.129-12.869l102.536-100.492c10.525-10.316 24.419-16.567 39.12-17.603 1.777-.125 3.451-.878 4.723-2.125l8.693-8.52c2.959-2.899 3.007-7.647.107-10.606-2.898-2.958-7.647-3.007-10.605-.107l-6.78 6.644c-17.206 1.847-33.362 9.455-45.758 21.603l-102.534 100.494c-9.489 9.301-9.643 24.589-.342 34.08 2.389 2.438 5.175 4.254 8.154 5.457-2.595 3.863-4.016 8.397-4.063 13.158-.064 6.437 2.381 12.514 6.887 17.111 2.298 2.345 4.965 4.11 7.815 5.312-3.413 4.208-5.299 9.403-5.354 14.901-.064 6.437 2.381 12.514 6.887 17.111 4.713 4.809 10.96 7.219 17.214 7.219 1.988 0 3.971-.269 5.911-.757.976 4.123 3.022 8.044 6.198 11.284 4.506 4.598 10.532 7.166 16.97 7.23.083.001.166.001.249.001 6.345 0 12.324-2.441 16.862-6.888l16.246-15.923c2.958-2.899 3.006-7.648.106-10.606-2.898-2.956-7.646-3.005-10.606-.105z"/></g></svg>