<svg height="511pt" fill="#fffd" viewBox="1 -30 511.999 511" width="511pt" xmlns="http://www.w3.org/2000/svg"><path d="m457.144531 230.441406h-151.675781c-5.546875 0-10.039062 4.496094-10.039062 10.039063s4.492187 10.039062 10.039062 10.039062h151.675781c5.542969 0 10.039063-4.496093 10.039063-10.039062s-4.492188-10.039063-10.039063-10.039063zm0 0"/><path d="m457.144531 346.550781h-151.675781c-5.546875 0-10.039062 4.496094-10.039062 10.039063 0 5.546875 4.492187 10.039062 10.039062 10.039062h151.675781c5.542969 0 10.039063-4.492187 10.039063-10.039062 0-5.542969-4.492188-10.039063-10.039063-10.039063zm0 0"/><path d="m148.226562 366.628906h116.109376c5.542968 0 10.039062-4.492187 10.039062-10.039062v-116.109375c0-5.542969-4.496094-10.039063-10.039062-10.039063h-116.109376c-5.542968 0-10.039062 4.496094-10.039062 10.039063v116.109375c0 5.546875 4.496094 10.039062 10.039062 10.039062zm10.039063-116.109375h96.03125v96.03125h-96.03125zm0 0"/><path d="m501.960938.5h-421.421876c-5.546874 0-10.039062 4.496094-10.039062 10.039062v57.679688h-60.460938c-5.542968 0-10.039062 4.492188-10.039062 10.039062v327.027344c0 24.972656 20.316406 45.289063 45.289062 45.289063h421.421876c24.972656 0 45.289062-20.316407 45.289062-45.289063v-394.746094c0-5.546874-4.496094-10.039062-10.039062-10.039062zm-431.460938 188.382812h-15.171875v-33.136718h15.167969v33.136718zm-50.421875 216.402344v-316.988281h50.421875v47.371094h-25.210938c-5.542968 0-10.039062 4.496093-10.039062 10.039062v53.214844c0 5.542969 4.496094 10.039063 10.039062 10.039063h25.207032v37.976562h-25.207032c-5.542968 0-10.039062 4.496094-10.039062 10.039062 0 5.542969 4.496094 10.039063 10.039062 10.039063h25.207032v37.976563h-25.207032c-5.542968 0-10.039062 4.496093-10.039062 10.039062 0 5.546875 4.496094 10.042969 10.039062 10.042969h25.207032v37.972656h-25.207032c-5.542968 0-10.039062 4.496094-10.039062 10.042969 0 5.542968 4.496094 10.039062 10.039062 10.039062h25.207032v22.15625c0 13.902344-11.308594 25.210938-25.207032 25.210938-13.902343 0-25.210937-11.308594-25.210937-25.210938zm471.84375 0c0 13.902344-11.308594 25.210938-25.210937 25.210938h-383.816407c4.988281-7.414063 7.679688-16.273438 7.679688-25.210938v-384.707031h401.347656zm0 0"/><path d="m187.039062 129.582031h209.3125c5.546876 0 10.039063-4.496093 10.039063-10.039062v-53.214844c0-5.542969-4.492187-10.039063-10.039063-10.039063h-209.3125c-5.542968 0-10.039062 4.496094-10.039062 10.039063v53.214844c0 5.542969 4.496094 10.039062 10.039062 10.039062zm10.039063-53.214843h189.234375v33.136718h-189.234375zm0 0"/><path d="m148.226562 190.050781h38.8125c5.542969 0 10.039063-4.496093 10.039063-10.039062s-4.496094-10.039063-10.039063-10.039063h-38.8125c-5.542968 0-10.039062 4.496094-10.039062 10.039063s4.496094 10.039062 10.039062 10.039062zm0 0"/><path d="m235.527344 174.441406c-2.34375-3.507812-6.726563-5.191406-10.820313-4.144531-4.007812 1.023437-7.007812 4.460937-7.5 8.570313-.488281 4.113281 1.734375 8.210937 5.421875 10.085937 3.734375 1.898437 8.347656 1.234375 11.417969-1.613281 3.550781-3.296875 4.167969-8.882813 1.480469-12.898438zm0 0"/><path d="m257.097656 180.011719c0 5.542969 4.496094 10.039062 10.039063 10.039062h190.007812c5.542969 0 10.039063-4.496093 10.039063-10.039062s-4.496094-10.039063-10.039063-10.039063h-190.007812c-5.542969 0-10.039063 4.496094-10.039063 10.039063zm0 0"/><path d="m453.3125 307.742188c3.863281 1.601562 8.460938.578124 11.269531-2.523438 2.816407-3.109375 3.386719-7.773438 1.410157-11.472656-1.996094-3.734375-6.261719-5.871094-10.453126-5.179688-4.203124.691406-7.605468 4.058594-8.300781 8.269532-.75 4.539062 1.820313 9.148437 6.074219 10.90625zm0 0"/><path d="m305.46875 308.515625h111.722656c5.542969 0 10.039063-4.496094 10.039063-10.042969 0-5.542968-4.496094-10.039062-10.039063-10.039062h-111.722656c-5.546875 0-10.039062 4.496094-10.039062 10.039062 0 5.546875 4.492187 10.042969 10.039062 10.042969zm0 0"/></svg>