<?xml version="1.0" encoding="iso-8859-1"?>
<!-- Generator: Adobe Illustrator 17.1.0, SVG Export Plug-In . SVG Version: 6.00 Build 0)  -->
<!DOCTYPE svg PUBLIC "-//W3C//DTD SVG 1.1//EN" "http://www.w3.org/Graphics/SVG/1.1/DTD/svg11.dtd">
<svg version="1.1" id="Capa_1" xmlns="http://www.w3.org/2000/svg" xmlns:xlink="http://www.w3.org/1999/xlink" x="0px" y="0px"
	 viewBox="0 0 465 465" style="enable-background:new 0 0 465 465;" fill="#fffd" xml:space="preserve">
<g>
	<path d="M343.047,294.476c-17.105-17.104-35.09-31.282-35.847-31.877c-2.985-2.345-7.252-2.093-9.938,0.593l-21.203,21.204
		l-56.917-56.917c-2.93-2.928-7.678-2.928-10.607,0c-2.929,2.93-2.929,7.678,0,10.607l62.221,62.22c2.93,2.928,7.678,2.928,10.607,0
		l21.726-21.727c6.529,5.398,18.266,15.417,29.352,26.504c11.12,11.119,21.165,22.892,26.552,29.41
		c-10.076,9.812-28.982,25.597-43.045,26.893c-28.911,2.669-83.581-29.971-132.971-79.36
		c-49.391-49.389-82.025-104.069-79.361-132.973c1.296-14.063,17.083-32.971,26.894-43.045c6.513,5.382,18.275,15.418,29.409,26.553
		c11.087,11.086,21.106,22.822,26.504,29.353l-21.726,21.725c-1.407,1.407-2.197,3.314-2.197,5.304s0.79,3.896,2.196,5.304
		l22.627,22.627c2.93,2.928,7.678,2.928,10.607,0c2.929-2.93,2.929-7.678,0-10.607l-17.324-17.323l21.203-21.202
		c2.686-2.686,2.94-6.953,0.594-9.938c-0.595-0.757-14.772-18.742-31.877-35.848c-17.105-17.105-35.091-31.282-35.848-31.877
		c-2.894-2.272-7.006-2.115-9.713,0.377c-3.468,3.19-33.953,31.904-36.287,57.223c-3.092,33.554,30.541,91.808,83.691,144.957
		c50.893,50.892,106.459,83.89,140.544,83.887c1.512,0,2.986-0.065,4.411-0.196c25.319-2.335,54.033-32.819,57.224-36.287
		c2.49-2.707,2.65-6.82,0.377-9.713C374.329,329.566,360.152,311.582,343.047,294.476z"/>
	<path d="M396.902,68.098C352.988,24.185,294.603,0,232.5,0S112.012,24.185,68.098,68.098C24.185,112.012,0,170.397,0,232.501
		c0,45.764,13.241,89.906,38.329,127.906L9.94,445.572c-0.898,2.695-0.197,5.667,1.812,7.676c2.009,2.008,4.979,2.709,7.676,1.812
		l85.165-28.388C142.592,451.759,186.734,465,232.5,465c62.103,0,120.488-24.185,164.402-68.098
		C440.815,352.989,465,294.604,465,232.501C465,170.397,440.815,112.012,396.902,68.098z M232.5,450
		c-43.987,0-86.365-13.071-122.553-37.801c-1.262-0.862-2.739-1.308-4.232-1.308c-0.796,0-1.597,0.127-2.371,0.385l-74.43,24.81
		l24.811-74.43c0.741-2.225,0.4-4.668-0.923-6.604C28.071,318.864,15,276.486,15,232.501C15,112.57,112.57,15,232.5,15
		S450,112.57,450,232.501C450,352.431,352.43,450,232.5,450z"/>
</g>
<g>
</g>
<g>
</g>
<g>
</g>
<g>
</g>
<g>
</g>
<g>
</g>
<g>
</g>
<g>
</g>
<g>
</g>
<g>
</g>
<g>
</g>
<g>
</g>
<g>
</g>
<g>
</g>
<g>
</g>
</svg>
